<svg width="164" height="21" viewBox="0 0 164 21" fill="none" xmlns="http://www.w3.org/2000/svg">
<path d="M4.44378 16.9656C3.58101 16.9656 2.74423 16.8099 1.93344 16.4985C1.13303 16.1729 0.488556 15.7553 0 15.2457L0.857572 12.6552C1.32534 13.1223 1.88146 13.4975 2.52594 13.7806C3.17042 14.0637 3.8149 14.2053 4.45937 14.2053C5.17662 14.2053 5.70675 14.0637 6.04978 13.7806C6.39281 13.4833 6.56432 13.094 6.56432 12.6127C6.56432 12.2588 6.46038 11.9687 6.25248 11.7422C6.05498 11.5015 5.79511 11.3104 5.47287 11.1689C5.16102 11.0273 4.73484 10.8716 4.19431 10.7017C3.36272 10.4328 2.68186 10.1638 2.15173 9.89484C1.62159 9.62589 1.16422 9.19414 0.779611 8.5996C0.405398 8.00506 0.218291 7.21234 0.218291 6.22144C0.218291 5.35794 0.389806 4.57937 0.732834 3.88574C1.07586 3.17796 1.59041 2.61881 2.27646 2.20829C2.97292 1.79778 3.82009 1.59252 4.818 1.59252C5.51445 1.59252 6.19531 1.70576 6.86058 1.93226C7.52584 2.15875 8.10795 2.48433 8.6069 2.909L7.82729 5.52073C6.819 4.74216 5.8107 4.35288 4.8024 4.35288C4.09556 4.35288 3.57062 4.5086 3.22759 4.82002C2.89496 5.13145 2.72864 5.54196 2.72864 6.05157C2.72864 6.56117 2.92094 6.94338 3.30555 7.19818C3.70055 7.43883 4.29825 7.67947 5.09866 7.92012C5.93024 8.18908 6.6111 8.45804 7.14124 8.727C7.67137 8.99596 8.12355 9.42063 8.49776 10.001C8.88237 10.5814 9.07467 11.367 9.07467 12.3579C9.07467 13.2073 8.89796 13.9858 8.54454 14.6936C8.20151 15.3873 7.68177 15.9393 6.98531 16.3498C6.28886 16.7604 5.44168 16.9656 4.44378 16.9656ZM10.6291 5.28716H13.0615V16.7108H10.6291V5.28716ZM11.8453 3.69464C11.3983 3.69464 11.0345 3.5177 10.7538 3.1638C10.4732 2.80991 10.3329 2.37108 10.3329 1.84732C10.3329 1.32356 10.4732 0.884732 10.7538 0.530841C11.0345 0.176946 11.3983 0 11.8453 0C12.2923 0 12.6561 0.169869 12.9368 0.509607C13.2174 0.849344 13.3578 1.27402 13.3578 1.78362C13.3578 2.33569 13.2174 2.79575 12.9368 3.1638C12.6561 3.5177 12.2923 3.69464 11.8453 3.69464ZM20.4176 5.11729C21.4571 5.11729 22.2939 5.54196 22.9279 6.39131C23.5724 7.24065 23.8947 8.50051 23.8947 10.1709V16.7108H21.4623V10.6805C21.4623 9.77452 21.3167 9.10212 21.0257 8.6633C20.7346 8.21031 20.3136 7.98382 19.7627 7.98382C19.1494 7.98382 18.6609 8.2457 18.2971 8.76946C17.9332 9.27907 17.7513 10.0435 17.7513 11.0627V16.7108H15.3189V5.28716H17.6422V6.62487C17.9644 6.14358 18.3646 5.77553 18.8428 5.52073C19.3209 5.25177 19.8459 5.11729 20.4176 5.11729ZM34.8446 5.28716V14.7998C34.8446 16.8948 34.4444 18.452 33.644 19.4712C32.8436 20.4904 31.6741 21 30.1357 21C29.3249 21 28.5557 20.8655 27.8281 20.5966C27.1004 20.3276 26.4975 19.9383 26.0194 19.4287L26.9861 17.0506C27.3395 17.4469 27.7865 17.7583 28.327 17.9848C28.8675 18.2255 29.4081 18.3458 29.9486 18.3458C30.7906 18.3458 31.4091 18.0839 31.8041 17.5602C32.2095 17.0506 32.4122 16.272 32.4122 15.2245V14.7361C31.7781 15.6845 30.8945 16.1587 29.7615 16.1587C28.9923 16.1587 28.2854 15.9323 27.641 15.4793C27.0069 15.0121 26.5027 14.361 26.1285 13.5258C25.7543 12.6906 25.5672 11.728 25.5672 10.638C25.5672 9.54803 25.7543 8.58544 26.1285 7.75025C26.5027 6.91507 27.0069 6.27098 27.641 5.818C28.2854 5.35086 28.9923 5.11729 29.7615 5.11729C30.9777 5.11729 31.9028 5.66229 32.5369 6.75228V5.28716H34.8446ZM30.2449 13.4408C30.8893 13.4408 31.4143 13.186 31.8197 12.6764C32.2355 12.1527 32.4434 11.4732 32.4434 10.638C32.4434 9.80283 32.2355 9.13044 31.8197 8.62083C31.4143 8.09707 30.8893 7.83519 30.2449 7.83519C29.6004 7.83519 29.0702 8.09707 28.6544 8.62083C28.2387 9.13044 28.0308 9.80283 28.0308 10.638C28.0308 11.4732 28.2387 12.1527 28.6544 12.6764C29.0702 13.186 29.6004 13.4408 30.2449 13.4408ZM45.7622 5.28716V14.7998C45.7622 16.8948 45.362 18.452 44.5616 19.4712C43.7612 20.4904 42.5918 21 41.0534 21C40.2426 21 39.4734 20.8655 38.7457 20.5966C38.0181 20.3276 37.4152 19.9383 36.937 19.4287L37.9038 17.0506C38.2572 17.4469 38.7042 17.7583 39.2447 17.9848C39.7852 18.2255 40.3257 18.3458 40.8663 18.3458C41.7083 18.3458 42.3267 18.0839 42.7217 17.5602C43.1271 17.0506 43.3298 16.272 43.3298 15.2245V14.7361C42.6958 15.6845 41.8122 16.1587 40.6792 16.1587C39.91 16.1587 39.2031 15.9323 38.5586 15.4793C37.9245 15.0121 37.4204 14.361 37.0462 13.5258C36.672 12.6906 36.4849 11.728 36.4849 10.638C36.4849 9.54803 36.672 8.58544 37.0462 7.75025C37.4204 6.91507 37.9245 6.27098 38.5586 5.818C39.2031 5.35086 39.91 5.11729 40.6792 5.11729C41.8954 5.11729 42.8205 5.66229 43.4546 6.75228V5.28716H45.7622ZM41.1625 13.4408C41.807 13.4408 42.3319 13.186 42.7373 12.6764C43.1531 12.1527 43.361 11.4732 43.361 10.638C43.361 9.80283 43.1531 9.13044 42.7373 8.62083C42.3319 8.09707 41.807 7.83519 41.1625 7.83519C40.518 7.83519 39.9879 8.09707 39.5721 8.62083C39.1563 9.13044 38.9484 9.80283 38.9484 10.638C38.9484 11.4732 39.1563 12.1527 39.5721 12.6764C39.9879 13.186 40.518 13.4408 41.1625 13.4408ZM56.5395 5.28716V16.7108H54.2162V15.3943C53.6133 16.3852 52.7402 16.8807 51.5967 16.8807C50.8067 16.8807 50.0895 16.64 49.445 16.1587C48.8109 15.6775 48.312 14.9909 47.9482 14.0991C47.5843 13.2073 47.4024 12.1739 47.4024 10.999C47.4024 9.82407 47.5843 8.7907 47.9482 7.89889C48.312 7.00708 48.8109 6.32053 49.445 5.83923C50.0895 5.35794 50.8067 5.11729 51.5967 5.11729C52.6674 5.11729 53.5042 5.57735 54.1071 6.49747V5.28716H56.5395ZM52.0177 14.1628C52.631 14.1628 53.1404 13.8797 53.5458 13.3134C53.9512 12.7331 54.1539 11.9616 54.1539 10.999C54.1539 10.0364 53.9512 9.27199 53.5458 8.70576C53.1404 8.12538 52.631 7.83519 52.0177 7.83519C51.394 7.83519 50.8795 8.12538 50.4741 8.70576C50.0687 9.27199 49.866 10.0364 49.866 10.999C49.866 11.9616 50.0687 12.7331 50.4741 13.3134C50.8795 13.8797 51.394 14.1628 52.0177 14.1628ZM63.8901 5.11729C64.9295 5.11729 65.7663 5.54196 66.4004 6.39131C67.0449 7.24065 67.3671 8.50051 67.3671 10.1709V16.7108H64.9347V10.6805C64.9347 9.77452 64.7892 9.10212 64.4982 8.6633C64.2071 8.21031 63.7861 7.98382 63.2352 7.98382C62.6219 7.98382 62.1333 8.2457 61.7695 8.76946C61.4057 9.27907 61.2238 10.0435 61.2238 11.0627V16.7108H58.7914V5.28716H61.1146V6.62487C61.4369 6.14358 61.8371 5.77553 62.3152 5.52073C62.7934 5.25177 63.3183 5.11729 63.8901 5.11729ZM78.317 5.28716V14.7998C78.317 16.8948 77.9168 18.452 77.1164 19.4712C76.316 20.4904 75.1466 21 73.6082 21C72.7974 21 72.0282 20.8655 71.3005 20.5966C70.5729 20.3276 69.97 19.9383 69.4918 19.4287L70.4585 17.0506C70.812 17.4469 71.2589 17.7583 71.7995 17.9848C72.34 18.2255 72.8805 18.3458 73.4211 18.3458C74.263 18.3458 74.8815 18.0839 75.2765 17.5602C75.6819 17.0506 75.8846 16.272 75.8846 15.2245V14.7361C75.2505 15.6845 74.367 16.1587 73.234 16.1587C72.4647 16.1587 71.7579 15.9323 71.1134 15.4793C70.4793 15.0121 69.9752 14.361 69.601 13.5258C69.2268 12.6906 69.0396 11.728 69.0396 10.638C69.0396 9.54803 69.2268 8.58544 69.601 7.75025C69.9752 6.91507 70.4793 6.27098 71.1134 5.818C71.7579 5.35086 72.4647 5.11729 73.234 5.11729C74.4501 5.11729 75.3753 5.66229 76.0094 6.75228V5.28716H78.317ZM73.7173 13.4408C74.3618 13.4408 74.8867 13.186 75.2921 12.6764C75.7079 12.1527 75.9158 11.4732 75.9158 10.638C75.9158 9.80283 75.7079 9.13044 75.2921 8.62083C74.8867 8.09707 74.3618 7.83519 73.7173 7.83519C73.0728 7.83519 72.5427 8.09707 72.1269 8.62083C71.7111 9.13044 71.5032 9.80283 71.5032 10.638C71.5032 11.4732 71.7111 12.1527 72.1269 12.6764C72.5427 13.186 73.0728 13.4408 73.7173 13.4408ZM87.1484 19.089C86.4104 19.089 85.7348 18.8979 85.1215 18.5157C84.5186 18.1476 84.0196 17.6168 83.6246 16.9232L84.9967 14.6299C85.5892 15.7199 86.2597 16.2649 87.0081 16.2649C88.0476 16.2649 88.5673 15.4439 88.5673 13.8018V4.60769H84.7473V1.84732H91.0933V13.6107C91.0933 15.4368 90.7606 16.8028 90.0954 17.7088C89.4301 18.6289 88.4478 19.089 87.1484 19.089ZM95.2643 19.089C94.5263 19.089 93.8506 18.8979 93.2373 18.5157C92.6344 18.1476 92.1355 17.6168 91.7405 16.9232L93.1126 14.6299C93.7051 15.7199 94.3755 16.2649 95.124 16.2649C96.1635 16.2649 96.6832 15.4439 96.6832 13.8018V4.60769H92.8631V1.84732H99.2091V13.6107C99.2091 15.4368 98.8765 16.8028 98.2112 17.7088C97.546 18.6289 96.5637 19.089 95.2643 19.089ZM114.073 6.0091C113.137 5.273 112.134 4.79879 111.063 4.58645V16.7108H108.537V4.58645C107.467 4.79879 106.458 5.273 105.513 6.0091L104.655 3.43984C105.403 2.83114 106.214 2.37108 107.087 2.05966C107.961 1.74823 108.86 1.59252 109.785 1.59252C110.72 1.59252 111.625 1.74823 112.498 2.05966C113.381 2.37108 114.192 2.83114 114.93 3.43984L114.073 6.0091ZM118.063 6.79474C118.354 6.24267 118.744 5.82508 119.233 5.54196C119.732 5.25885 120.303 5.11729 120.948 5.11729V8.17492C120.678 8.14661 120.496 8.13246 120.402 8.13246C119.706 8.13246 119.16 8.40142 118.765 8.93933C118.37 9.46309 118.172 10.2558 118.172 11.3175V16.7108H115.74V5.28716H118.063V6.79474ZM126.309 16.8807C125.426 16.8807 124.631 16.633 123.924 16.1375C123.227 15.6279 122.682 14.9272 122.287 14.0354C121.892 13.1436 121.694 12.1314 121.694 10.999C121.694 9.86653 121.892 8.8544 122.287 7.96259C122.682 7.07078 123.227 6.37715 123.924 5.8817C124.631 5.37209 125.426 5.11729 126.309 5.11729C127.193 5.11729 127.983 5.37209 128.679 5.8817C129.376 6.37715 129.922 7.07078 130.317 7.96259C130.712 8.8544 130.909 9.86653 130.909 10.999C130.909 12.1314 130.712 13.1436 130.317 14.0354C129.922 14.9272 129.376 15.6279 128.679 16.1375C127.983 16.633 127.193 16.8807 126.309 16.8807ZM126.309 14.1628C126.933 14.1628 127.442 13.8797 127.837 13.3134C128.243 12.7331 128.446 11.9616 128.446 10.999C128.446 10.0364 128.243 9.27199 127.837 8.70576C127.442 8.12538 126.933 7.83519 126.309 7.83519C125.686 7.83519 125.171 8.12538 124.766 8.70576C124.36 9.27199 124.158 10.0364 124.158 10.999C124.158 11.9616 124.36 12.7331 124.766 13.3134C125.171 13.8797 125.686 14.1628 126.309 14.1628ZM137.634 5.11729C138.673 5.11729 139.51 5.54196 140.144 6.39131C140.788 7.24065 141.111 8.50051 141.111 10.1709V16.7108H138.678V10.6805C138.678 9.77452 138.533 9.10212 138.242 8.6633C137.951 8.21031 137.53 7.98382 136.979 7.98382C136.365 7.98382 135.877 8.2457 135.513 8.76946C135.149 9.27907 134.967 10.0435 134.967 11.0627V16.7108H132.535V5.28716H134.858V6.62487C135.18 6.14358 135.581 5.77553 136.059 5.52073C136.537 5.25177 137.062 5.11729 137.634 5.11729ZM143.315 5.28716H145.748V16.7108H143.315V5.28716ZM144.532 3.69464C144.085 3.69464 143.721 3.5177 143.44 3.1638C143.159 2.80991 143.019 2.37108 143.019 1.84732C143.019 1.32356 143.159 0.884732 143.44 0.530841C143.721 0.176946 144.085 0 144.532 0C144.979 0 145.342 0.169869 145.623 0.509607C145.904 0.849344 146.044 1.27402 146.044 1.78362C146.044 2.33569 145.904 2.79575 145.623 3.1638C145.342 3.5177 144.979 3.69464 144.532 3.69464ZM152.059 16.8807C151.166 16.8807 150.36 16.633 149.643 16.1375C148.936 15.6279 148.38 14.9272 147.974 14.0354C147.579 13.1436 147.382 12.1314 147.382 10.999C147.382 9.86653 147.579 8.8544 147.974 7.96259C148.38 7.07078 148.936 6.37715 149.643 5.8817C150.36 5.37209 151.166 5.11729 152.059 5.11729C152.943 5.11729 153.712 5.37209 154.367 5.8817C155.032 6.37715 155.516 7.09201 155.817 8.02629L153.931 9.40647C153.494 8.35895 152.865 7.83519 152.044 7.83519C151.41 7.83519 150.885 8.1183 150.469 8.68453C150.053 9.25076 149.845 10.0222 149.845 10.999C149.845 11.9757 150.053 12.7472 150.469 13.3134C150.885 13.8797 151.41 14.1628 152.044 14.1628C152.875 14.1628 153.504 13.639 153.931 12.5915L155.817 13.9929C155.516 14.8989 155.032 15.6067 154.367 16.1163C153.712 16.6259 152.943 16.8807 152.059 16.8807ZM160.04 16.8807C159.343 16.8807 158.662 16.7674 157.997 16.541C157.332 16.3003 156.802 16.003 156.407 15.6491L157.217 13.271C157.592 13.5966 158.044 13.8655 158.574 14.0779C159.104 14.276 159.624 14.3751 160.133 14.3751C161.162 14.3751 161.677 14.0283 161.677 13.3347C161.677 13.0091 161.536 12.7755 161.256 12.634C160.975 12.4924 160.544 12.3721 159.962 12.273C159.276 12.1314 158.709 11.9687 158.262 11.7846C157.815 11.6006 157.425 11.275 157.093 10.8079C156.77 10.3407 156.609 9.67543 156.609 8.81193C156.609 8.08999 156.76 7.45298 157.061 6.90091C157.373 6.33468 157.82 5.89586 158.402 5.58443C158.995 5.273 159.691 5.11729 160.492 5.11729C161.084 5.11729 161.672 5.2093 162.254 5.39333C162.846 5.5632 163.335 5.80384 163.719 6.11527L162.909 8.47219C162.171 7.90597 161.365 7.62285 160.492 7.62285C159.972 7.62285 159.582 7.72194 159.322 7.92012C159.062 8.1183 158.933 8.3731 158.933 8.68453C158.933 9.03842 159.073 9.28615 159.354 9.42771C159.634 9.56926 160.081 9.70374 160.694 9.83114C161.381 9.98686 161.942 10.1567 162.378 10.3407C162.815 10.5106 163.194 10.8291 163.517 11.2963C163.839 11.7634 164 12.4146 164 13.2497C164 13.9575 163.844 14.5875 163.532 15.1395C163.22 15.6916 162.763 16.1234 162.16 16.4348C161.568 16.7321 160.861 16.8807 160.04 16.8807Z" fill="#FFAD46"/>
</svg>
